# xmcd CD database file
#
# Track frame offsets:
#	187
#	17875
#	32337
#	44237
#	117337
#	131600
#	142937
#	157452
#	175100
#	185587
#	204747
#
# Disc length: 2904 seconds
#
# Revision: 0
# Processed by: cddbd v1.5PL3 Copyright (c) Steve Scherf et al.
# Submitted via: CDex 1.51
#
DISCID=a20b560b
DTITLE=Shigeru Suzuki - OLD‐NEW
DYEAR=1900
DGENRE=Rock
TTITLE0=スノー・エキスプレス
TTITLE1=ウッド・ペッカー
TTITLE2=グレート・アメリカン・ファンキーガール
TTITLE3=ジャングル・ジャム
TTITLE4=ブランデー・ワイン
TTITLE5=ハワイアン
TTITLE6=アルメリア
TTITLE7=明日あたりはきっと春
TTITLE8=テレスコープ
TTITLE9=フェニックス
TTITLE10=SEI DO YA
EXTD=
EXTT0=
EXTT1=
EXTT2=
EXTT3=
EXTT4=
EXTT5=
EXTT6=
EXTT7=
EXTT8=
EXTT9=
EXTT10=
PLAYORDER=
